<svg xmlns="http://www.w3.org/2000/svg" width="256" height="256" fill="none" viewBox="0 0 256 256" id="notion">
  <rect width="224" height="224" x="16" y="16" fill="url(#paint0_linear_531_13633)" rx="70"></rect>
  <path fill="#000" d="M145.562 64.9543L75.6125 70.1202C69.9706 70.6094 68.0068 74.2965 68.0068 78.7166V155.4C68.0068 158.842 69.2286 161.788 72.1783 165.723L88.6209 187.104C91.322 190.547 93.7783 191.284 98.9362 191.04L180.165 186.122C187.034 185.633 189.002 182.435 189.002 177.029V90.7598C189.002 87.9661 187.898 87.1612 184.649 84.7762L184.089 84.3717L161.764 68.6414C156.362 64.7142 154.154 64.217 145.562 64.9543ZM100.773 89.3481C94.1408 89.7947 92.6364 89.8958 88.8695 86.8322L79.2915 79.2138C78.3179 78.2279 78.8066 76.9971 81.2591 76.7528L148.503 71.8397C154.15 71.3467 157.091 73.3143 159.299 75.0338L170.832 83.39C171.325 83.6381 172.551 85.109 171.076 85.109L101.633 89.289L100.773 89.3481ZM93.041 176.291V103.055C93.041 99.8571 94.0227 98.3825 96.9639 98.1339L176.723 93.4647C179.428 93.2204 180.65 94.9393 180.65 98.1339V170.881C180.65 174.079 180.157 176.784 175.741 177.029L99.4164 181.453C95.0005 181.698 93.041 180.227 93.041 176.291ZM168.384 106.982C168.873 109.195 168.384 111.407 166.172 111.66L162.493 112.389V166.46C159.299 168.179 156.358 169.161 153.901 169.161C149.974 169.161 148.992 167.931 146.051 164.248L121.994 126.399V163.017L129.604 164.741C129.604 164.741 129.604 169.166 123.465 169.166L106.538 170.147C106.045 169.161 106.538 166.705 108.253 166.216L112.673 164.989V116.573L106.538 116.076C106.045 113.864 107.271 110.67 110.71 110.421L128.871 109.199L153.901 147.536V113.62L147.521 112.886C147.028 110.177 148.992 108.209 151.444 107.969L168.384 106.982Z"></path>
  <defs>
    <linearGradient id="paint0_linear_531_13633" x1="16" x2="208" y1="16" y2="240" gradientUnits="userSpaceOnUse">
      <stop stop-color="#fff"></stop>
      <stop offset="1" stop-color="#ACCCFF"></stop>
    </linearGradient>
  </defs>
</svg>
